<?xml version="1.0" encoding="iso-8859-1"?>
<!-- Uploaded to: SVG Repo, www.svgrepo.com, Generator: SVG Repo Mixer Tools -->
<svg fill="currentColor" height="800px" width="800px" version="1.1" id="Layer_1" xmlns="http://www.w3.org/2000/svg" xmlns:xlink="http://www.w3.org/1999/xlink"
	 viewBox="0 0 512 512" xml:space="preserve">
<g>
	<g>
		<path d="M256,114.5c-30.256,0-54.872,24.816-54.872,55.328c0,21.464,12.552,41.168,31.976,50.2l13.2,6.136l4.048,13.992
			c1.608,5.552,3.544,11.328,5.64,17.072c2.112-5.768,4.048-11.544,5.648-17.08l4.048-13.984l13.2-6.136
			c19.432-9.032,31.984-28.736,31.984-50.2C310.872,139.324,286.256,114.5,256,114.5z M256,198.844
			c-15.944,0-28.872-12.992-28.872-29.016c0-16.024,12.928-29.016,28.872-29.016c15.944,0,28.872,12.992,28.872,29.016
			C284.872,185.852,271.944,198.844,256,198.844z"/>
	</g>
</g>
<g>
	<g>
		<path d="M481.048,25.14H30.952C13.88,25.14,0,39.028,0,56.092v300.104c0,17.064,13.88,30.944,30.952,30.944h144.6l-9.36,67.72H132
			v32h248v-32h-34.192l-9.36-67.72h144.6c17.072,0,30.952-13.88,30.952-30.944V56.092C512,39.028,498.12,25.14,481.048,25.14z
			 M198.504,454.86l9.352-67.664l-0.4-0.056h97.088l-0.4,0.056l9.352,67.664H198.504z M292.376,249.052
			c-9.416,32.552-28.48,70.72-31.256,76.256l-5.12,10.08l-5.088-10.088c-2.808-5.504-21.88-43.68-31.296-76.256
			c-29.776-13.848-50.488-44.064-50.488-79.216c0-48.224,38.896-87.32,86.872-87.32s86.872,39.096,86.872,87.328
			C342.872,204.988,322.16,235.212,292.376,249.052z"/>
	</g>
</g>
</svg>
